<?xml version="1.0" encoding="UTF-8"?>
<!DOCTYPE svg PUBLIC "-//W3C//DTD SVG 1.1//EN" "http://www.w3.org/Graphics/SVG/1.1/DTD/svg11.dtd">
<svg xmlns="http://www.w3.org/2000/svg" version="1.1" viewBox="0 0 35 35" stroke="none">
	<rect width="100%" height="100%" fill="#FFFFFF"/>
	<path d="M1,1h1v1h-1z M2,1h1v1h-1z M3,1h1v1h-1z M4,1h1v1h-1z M5,1h1v1h-1z M6,1h1v1h-1z M7,1h1v1h-1z M12,1h1v1h-1z M16,1h1v1h-1z M19,1h1v1h-1z M20,1h1v1h-1z M22,1h1v1h-1z M23,1h1v1h-1z M25,1h1v1h-1z M27,1h1v1h-1z M28,1h1v1h-1z M29,1h1v1h-1z M30,1h1v1h-1z M31,1h1v1h-1z M32,1h1v1h-1z M33,1h1v1h-1z M1,2h1v1h-1z M7,2h1v1h-1z M10,2h1v1h-1z M11,2h1v1h-1z M14,2h1v1h-1z M16,2h1v1h-1z M18,2h1v1h-1z M19,2h1v1h-1z M20,2h1v1h-1z M21,2h1v1h-1z M22,2h1v1h-1z M23,2h1v1h-1z M27,2h1v1h-1z M33,2h1v1h-1z M1,3h1v1h-1z M3,3h1v1h-1z M4,3h1v1h-1z M5,3h1v1h-1z M7,3h1v1h-1z M9,3h1v1h-1z M11,3h1v1h-1z M14,3h1v1h-1z M15,3h1v1h-1z M18,3h1v1h-1z M19,3h1v1h-1z M20,3h1v1h-1z M22,3h1v1h-1z M24,3h1v1h-1z M27,3h1v1h-1z M29,3h1v1h-1z M30,3h1v1h-1z M31,3h1v1h-1z M33,3h1v1h-1z M1,4h1v1h-1z M3,4h1v1h-1z M4,4h1v1h-1z M5,4h1v1h-1z M7,4h1v1h-1z M9,4h1v1h-1z M11,4h1v1h-1z M12,4h1v1h-1z M13,4h1v1h-1z M15,4h1v1h-1z M16,4h1v1h-1z M20,4h1v1h-1z M21,4h1v1h-1z M22,4h1v1h-1z M23,4h1v1h-1z M24,4h1v1h-1z M25,4h1v1h-1z M27,4h1v1h-1z M29,4h1v1h-1z M30,4h1v1h-1z M31,4h1v1h-1z M33,4h1v1h-1z M1,5h1v1h-1z M3,5h1v1h-1z M4,5h1v1h-1z M5,5h1v1h-1z M7,5h1v1h-1z M12,5h1v1h-1z M13,5h1v1h-1z M14,5h1v1h-1z M17,5h1v1h-1z M18,5h1v1h-1z M19,5h1v1h-1z M20,5h1v1h-1z M21,5h1v1h-1z M23,5h1v1h-1z M24,5h1v1h-1z M27,5h1v1h-1z M29,5h1v1h-1z M30,5h1v1h-1z M31,5h1v1h-1z M33,5h1v1h-1z M1,6h1v1h-1z M7,6h1v1h-1z M10,6h1v1h-1z M12,6h1v1h-1z M14,6h1v1h-1z M17,6h1v1h-1z M19,6h1v1h-1z M22,6h1v1h-1z M25,6h1v1h-1z M27,6h1v1h-1z M33,6h1v1h-1z M1,7h1v1h-1z M2,7h1v1h-1z M3,7h1v1h-1z M4,7h1v1h-1z M5,7h1v1h-1z M6,7h1v1h-1z M7,7h1v1h-1z M9,7h1v1h-1z M11,7h1v1h-1z M13,7h1v1h-1z M15,7h1v1h-1z M17,7h1v1h-1z M19,7h1v1h-1z M21,7h1v1h-1z M23,7h1v1h-1z M25,7h1v1h-1z M27,7h1v1h-1z M28,7h1v1h-1z M29,7h1v1h-1z M30,7h1v1h-1z M31,7h1v1h-1z M32,7h1v1h-1z M33,7h1v1h-1z M10,8h1v1h-1z M16,8h1v1h-1z M17,8h1v1h-1z M19,8h1v1h-1z M20,8h1v1h-1z M24,8h1v1h-1z M4,9h1v1h-1z M5,9h1v1h-1z M7,9h1v1h-1z M8,9h1v1h-1z M10,9h1v1h-1z M11,9h1v1h-1z M12,9h1v1h-1z M13,9h1v1h-1z M14,9h1v1h-1z M15,9h1v1h-1z M20,9h1v1h-1z M24,9h1v1h-1z M25,9h1v1h-1z M30,9h1v1h-1z M31,9h1v1h-1z M1,10h1v1h-1z M2,10h1v1h-1z M4,10h1v1h-1z M5,10h1v1h-1z M10,10h1v1h-1z M14,10h1v1h-1z M16,10h1v1h-1z M18,10h1v1h-1z M19,10h1v1h-1z M21,10h1v1h-1z M23,10h1v1h-1z M24,10h1v1h-1z M26,10h1v1h-1z M28,10h1v1h-1z M29,10h1v1h-1z M31,10h1v1h-1z M1,11h1v1h-1z M3,11h1v1h-1z M6,11h1v1h-1z M7,11h1v1h-1z M8,11h1v1h-1z M14,11h1v1h-1z M16,11h1v1h-1z M17,11h1v1h-1z M20,11h1v1h-1z M21,11h1v1h-1z M22,11h1v1h-1z M24,11h1v1h-1z M26,11h1v1h-1z M27,11h1v1h-1z M28,11h1v1h-1z M30,11h1v1h-1z M33,11h1v1h-1z M2,12h1v1h-1z M3,12h1v1h-1z M4,12h1v1h-1z M8,12h1v1h-1z M9,12h1v1h-1z M10,12h1v1h-1z M11,12h1v1h-1z M12,12h1v1h-1z M13,12h1v1h-1z M16,12h1v1h-1z M17,12h1v1h-1z M18,12h1v1h-1z M21,12h1v1h-1z M24,12h1v1h-1z M25,12h1v1h-1z M26,12h1v1h-1z M28,12h1v1h-1z M29,12h1v1h-1z M30,12h1v1h-1z M31,12h1v1h-1z M4,13h1v1h-1z M6,13h1v1h-1z M7,13h1v1h-1z M9,13h1v1h-1z M12,13h1v1h-1z M13,13h1v1h-1z M14,13h1v1h-1z M15,13h1v1h-1z M16,13h1v1h-1z M18,13h1v1h-1z M19,13h1v1h-1z M20,13h1v1h-1z M21,13h1v1h-1z M22,13h1v1h-1z M23,13h1v1h-1z M24,13h1v1h-1z M26,13h1v1h-1z M27,13h1v1h-1z M29,13h1v1h-1z M32,13h1v1h-1z M33,13h1v1h-1z M1,14h1v1h-1z M6,14h1v1h-1z M13,14h1v1h-1z M14,14h1v1h-1z M15,14h1v1h-1z M16,14h1v1h-1z M17,14h1v1h-1z M18,14h1v1h-1z M19,14h1v1h-1z M20,14h1v1h-1z M22,14h1v1h-1z M23,14h1v1h-1z M24,14h1v1h-1z M25,14h1v1h-1z M30,14h1v1h-1z M32,14h1v1h-1z M3,15h1v1h-1z M4,15h1v1h-1z M5,15h1v1h-1z M7,15h1v1h-1z M10,15h1v1h-1z M11,15h1v1h-1z M13,15h1v1h-1z M14,15h1v1h-1z M15,15h1v1h-1z M16,15h1v1h-1z M17,15h1v1h-1z M18,15h1v1h-1z M19,15h1v1h-1z M25,15h1v1h-1z M27,15h1v1h-1z M29,15h1v1h-1z M30,15h1v1h-1z M31,15h1v1h-1z M2,16h1v1h-1z M5,16h1v1h-1z M6,16h1v1h-1z M8,16h1v1h-1z M9,16h1v1h-1z M11,16h1v1h-1z M12,16h1v1h-1z M14,16h1v1h-1z M15,16h1v1h-1z M19,16h1v1h-1z M21,16h1v1h-1z M24,16h1v1h-1z M26,16h1v1h-1z M29,16h1v1h-1z M31,16h1v1h-1z M32,16h1v1h-1z M3,17h1v1h-1z M6,17h1v1h-1z M7,17h1v1h-1z M9,17h1v1h-1z M13,17h1v1h-1z M14,17h1v1h-1z M15,17h1v1h-1z M16,17h1v1h-1z M17,17h1v1h-1z M21,17h1v1h-1z M25,17h1v1h-1z M26,17h1v1h-1z M27,17h1v1h-1z M28,17h1v1h-1z M29,17h1v1h-1z M30,17h1v1h-1z M31,17h1v1h-1z M1,18h1v1h-1z M2,18h1v1h-1z M5,18h1v1h-1z M6,18h1v1h-1z M8,18h1v1h-1z M9,18h1v1h-1z M10,18h1v1h-1z M11,18h1v1h-1z M13,18h1v1h-1z M15,18h1v1h-1z M16,18h1v1h-1z M19,18h1v1h-1z M20,18h1v1h-1z M21,18h1v1h-1z M22,18h1v1h-1z M25,18h1v1h-1z M26,18h1v1h-1z M27,18h1v1h-1z M29,18h1v1h-1z M30,18h1v1h-1z M33,18h1v1h-1z M2,19h1v1h-1z M4,19h1v1h-1z M5,19h1v1h-1z M7,19h1v1h-1z M9,19h1v1h-1z M10,19h1v1h-1z M11,19h1v1h-1z M12,19h1v1h-1z M13,19h1v1h-1z M19,19h1v1h-1z M22,19h1v1h-1z M23,19h1v1h-1z M24,19h1v1h-1z M25,19h1v1h-1z M28,19h1v1h-1z M29,19h1v1h-1z M30,19h1v1h-1z M31,19h1v1h-1z M33,19h1v1h-1z M1,20h1v1h-1z M3,20h1v1h-1z M8,20h1v1h-1z M10,20h1v1h-1z M12,20h1v1h-1z M13,20h1v1h-1z M17,20h1v1h-1z M19,20h1v1h-1z M21,20h1v1h-1z M24,20h1v1h-1z M25,20h1v1h-1z M26,20h1v1h-1z M29,20h1v1h-1z M30,20h1v1h-1z M31,20h1v1h-1z M1,21h1v1h-1z M2,21h1v1h-1z M3,21h1v1h-1z M5,21h1v1h-1z M6,21h1v1h-1z M7,21h1v1h-1z M12,21h1v1h-1z M13,21h1v1h-1z M14,21h1v1h-1z M15,21h1v1h-1z M18,21h1v1h-1z M19,21h1v1h-1z M20,21h1v1h-1z M21,21h1v1h-1z M23,21h1v1h-1z M24,21h1v1h-1z M27,21h1v1h-1z M30,21h1v1h-1z M33,21h1v1h-1z M1,22h1v1h-1z M3,22h1v1h-1z M5,22h1v1h-1z M6,22h1v1h-1z M8,22h1v1h-1z M10,22h1v1h-1z M12,22h1v1h-1z M13,22h1v1h-1z M14,22h1v1h-1z M16,22h1v1h-1z M17,22h1v1h-1z M18,22h1v1h-1z M19,22h1v1h-1z M20,22h1v1h-1z M23,22h1v1h-1z M25,22h1v1h-1z M27,22h1v1h-1z M29,22h1v1h-1z M30,22h1v1h-1z M32,22h1v1h-1z M1,23h1v1h-1z M3,23h1v1h-1z M5,23h1v1h-1z M7,23h1v1h-1z M10,23h1v1h-1z M11,23h1v1h-1z M12,23h1v1h-1z M15,23h1v1h-1z M18,23h1v1h-1z M19,23h1v1h-1z M21,23h1v1h-1z M22,23h1v1h-1z M23,23h1v1h-1z M24,23h1v1h-1z M27,23h1v1h-1z M30,23h1v1h-1z M33,23h1v1h-1z M1,24h1v1h-1z M4,24h1v1h-1z M12,24h1v1h-1z M13,24h1v1h-1z M14,24h1v1h-1z M15,24h1v1h-1z M16,24h1v1h-1z M17,24h1v1h-1z M18,24h1v1h-1z M23,24h1v1h-1z M24,24h1v1h-1z M25,24h1v1h-1z M29,24h1v1h-1z M30,24h1v1h-1z M31,24h1v1h-1z M33,24h1v1h-1z M1,25h1v1h-1z M2,25h1v1h-1z M4,25h1v1h-1z M6,25h1v1h-1z M7,25h1v1h-1z M8,25h1v1h-1z M9,25h1v1h-1z M10,25h1v1h-1z M11,25h1v1h-1z M20,25h1v1h-1z M24,25h1v1h-1z M25,25h1v1h-1z M26,25h1v1h-1z M27,25h1v1h-1z M28,25h1v1h-1z M29,25h1v1h-1z M9,26h1v1h-1z M10,26h1v1h-1z M11,26h1v1h-1z M14,26h1v1h-1z M17,26h1v1h-1z M19,26h1v1h-1z M20,26h1v1h-1z M21,26h1v1h-1z M22,26h1v1h-1z M25,26h1v1h-1z M29,26h1v1h-1z M31,26h1v1h-1z M1,27h1v1h-1z M2,27h1v1h-1z M3,27h1v1h-1z M4,27h1v1h-1z M5,27h1v1h-1z M6,27h1v1h-1z M7,27h1v1h-1z M9,27h1v1h-1z M10,27h1v1h-1z M12,27h1v1h-1z M13,27h1v1h-1z M20,27h1v1h-1z M21,27h1v1h-1z M24,27h1v1h-1z M25,27h1v1h-1z M27,27h1v1h-1z M29,27h1v1h-1z M32,27h1v1h-1z M1,28h1v1h-1z M7,28h1v1h-1z M14,28h1v1h-1z M16,28h1v1h-1z M17,28h1v1h-1z M18,28h1v1h-1z M21,28h1v1h-1z M22,28h1v1h-1z M23,28h1v1h-1z M24,28h1v1h-1z M25,28h1v1h-1z M29,28h1v1h-1z M31,28h1v1h-1z M33,28h1v1h-1z M1,29h1v1h-1z M3,29h1v1h-1z M4,29h1v1h-1z M5,29h1v1h-1z M7,29h1v1h-1z M9,29h1v1h-1z M10,29h1v1h-1z M12,29h1v1h-1z M13,29h1v1h-1z M14,29h1v1h-1z M17,29h1v1h-1z M18,29h1v1h-1z M21,29h1v1h-1z M22,29h1v1h-1z M23,29h1v1h-1z M24,29h1v1h-1z M25,29h1v1h-1z M26,29h1v1h-1z M27,29h1v1h-1z M28,29h1v1h-1z M29,29h1v1h-1z M1,30h1v1h-1z M3,30h1v1h-1z M4,30h1v1h-1z M5,30h1v1h-1z M7,30h1v1h-1z M9,30h1v1h-1z M10,30h1v1h-1z M11,30h1v1h-1z M12,30h1v1h-1z M16,30h1v1h-1z M18,30h1v1h-1z M21,30h1v1h-1z M23,30h1v1h-1z M24,30h1v1h-1z M28,30h1v1h-1z M32,30h1v1h-1z M1,31h1v1h-1z M3,31h1v1h-1z M4,31h1v1h-1z M5,31h1v1h-1z M7,31h1v1h-1z M10,31h1v1h-1z M11,31h1v1h-1z M12,31h1v1h-1z M13,31h1v1h-1z M14,31h1v1h-1z M15,31h1v1h-1z M16,31h1v1h-1z M21,31h1v1h-1z M22,31h1v1h-1z M24,31h1v1h-1z M25,31h1v1h-1z M29,31h1v1h-1z M30,31h1v1h-1z M32,31h1v1h-1z M33,31h1v1h-1z M1,32h1v1h-1z M7,32h1v1h-1z M11,32h1v1h-1z M13,32h1v1h-1z M14,32h1v1h-1z M15,32h1v1h-1z M17,32h1v1h-1z M20,32h1v1h-1z M23,32h1v1h-1z M26,32h1v1h-1z M30,32h1v1h-1z M32,32h1v1h-1z M33,32h1v1h-1z M1,33h1v1h-1z M2,33h1v1h-1z M3,33h1v1h-1z M4,33h1v1h-1z M5,33h1v1h-1z M6,33h1v1h-1z M7,33h1v1h-1z M10,33h1v1h-1z M11,33h1v1h-1z M12,33h1v1h-1z M13,33h1v1h-1z M18,33h1v1h-1z M20,33h1v1h-1z M22,33h1v1h-1z M25,33h1v1h-1z M26,33h1v1h-1z M29,33h1v1h-1z M31,33h1v1h-1z" fill="#000000"/>
</svg>
